<?xml version="1.0" encoding="UTF-8" standalone="no"?>
<!DOCTYPE svg PUBLIC "-//W3C//DTD SVG 1.1//EN"
 "http://www.w3.org/Graphics/SVG/1.1/DTD/svg11.dtd">
<!-- Generated by graphviz version 2.40.1 (0)
 -->
<!-- Title: /opt/panosc/openPMD_extension/openPMD_raytrace_API/cpp/include/openpmd_output_formats.h Pages: 1 -->
<svg width="508pt" height="217pt"
 viewBox="0.00 0.00 508.00 217.00" xmlns="http://www.w3.org/2000/svg" xmlns:xlink="http://www.w3.org/1999/xlink">
<g id="graph0" class="graph" transform="scale(1 1) rotate(0) translate(4 213)">
<title>/opt/panosc/openPMD_extension/openPMD_raytrace_API/cpp/include/openpmd_output_formats.h</title>
<polygon fill="#ffffff" stroke="transparent" points="-4,4 -4,-213 504,-213 504,4 -4,4"/>
<!-- Node1 -->
<g id="node1" class="node">
<title>Node1</title>
<polygon fill="#bfbfbf" stroke="#000000" points="168,-156.5 168,-208.5 318,-208.5 318,-156.5 168,-156.5"/>
<text text-anchor="start" x="176" y="-196.5" font-family="Helvetica,sans-Serif" font-size="10.00" fill="#000000">/opt/panosc/openPMD</text>
<text text-anchor="start" x="176" y="-185.5" font-family="Helvetica,sans-Serif" font-size="10.00" fill="#000000">_extension/openPMD_raytrace</text>
<text text-anchor="start" x="176" y="-174.5" font-family="Helvetica,sans-Serif" font-size="10.00" fill="#000000">_API/cpp/include/openpmd</text>
<text text-anchor="middle" x="243" y="-163.5" font-family="Helvetica,sans-Serif" font-size="10.00" fill="#000000">_output_formats.h</text>
</g>
<!-- Node2 -->
<g id="node2" class="node">
<title>Node2</title>
<g id="a_node2"><a xlink:href="openPMD__io_8hh.html" target="_top" xlink:title="/opt/panosc/openPMD\l_extension/openPMD_raytrace\l_API/cpp/include/openPMD_io.hh">
<polygon fill="#ffffff" stroke="#000000" points="161.5,-78.5 161.5,-119.5 324.5,-119.5 324.5,-78.5 161.5,-78.5"/>
<text text-anchor="start" x="169.5" y="-107.5" font-family="Helvetica,sans-Serif" font-size="10.00" fill="#000000">/opt/panosc/openPMD</text>
<text text-anchor="start" x="169.5" y="-96.5" font-family="Helvetica,sans-Serif" font-size="10.00" fill="#000000">_extension/openPMD_raytrace</text>
<text text-anchor="middle" x="243" y="-85.5" font-family="Helvetica,sans-Serif" font-size="10.00" fill="#000000">_API/cpp/include/openPMD_io.hh</text>
</a>
</g>
</g>
<!-- Node1&#45;&gt;Node2 -->
<g id="edge1" class="edge">
<title>Node1&#45;&gt;Node2</title>
<path fill="none" stroke="#191970" d="M243,-145.8168C243,-136.8649 243,-127.5976 243,-119.6941"/>
<polygon fill="#191970" stroke="#191970" points="239.5001,-146.08 243,-156.0801 246.5001,-146.0801 239.5001,-146.08"/>
</g>
<!-- Node3 -->
<g id="node3" class="node">
<title>Node3</title>
<g id="a_node3"><a xlink:href="openPMD__io_8cc.html" target="_top" xlink:title="/opt/panosc/openPMD\l_extension/openPMD_raytrace\l_API/cpp/src/openPMD_io.cc">
<polygon fill="#ffffff" stroke="#000000" points="0,-.5 0,-41.5 150,-41.5 150,-.5 0,-.5"/>
<text text-anchor="start" x="8" y="-29.5" font-family="Helvetica,sans-Serif" font-size="10.00" fill="#000000">/opt/panosc/openPMD</text>
<text text-anchor="start" x="8" y="-18.5" font-family="Helvetica,sans-Serif" font-size="10.00" fill="#000000">_extension/openPMD_raytrace</text>
<text text-anchor="middle" x="75" y="-7.5" font-family="Helvetica,sans-Serif" font-size="10.00" fill="#000000">_API/cpp/src/openPMD_io.cc</text>
</a>
</g>
</g>
<!-- Node2&#45;&gt;Node3 -->
<g id="edge2" class="edge">
<title>Node2&#45;&gt;Node3</title>
<path fill="none" stroke="#191970" d="M189.2872,-74.0619C166.6756,-63.5637 140.6833,-51.4958 119.2052,-41.5239"/>
<polygon fill="#191970" stroke="#191970" points="187.8761,-77.2656 198.4202,-78.3022 190.824,-70.9165 187.8761,-77.2656"/>
</g>
<!-- Node4 -->
<g id="node4" class="node">
<title>Node4</title>
<g id="a_node4"><a xlink:href="rays_8cc.html" target="_top" xlink:title="/opt/panosc/openPMD\l_extension/openPMD_raytrace\l_API/cpp/src/rays.cc">
<polygon fill="#ffffff" stroke="#000000" points="168,-.5 168,-41.5 318,-41.5 318,-.5 168,-.5"/>
<text text-anchor="start" x="176" y="-29.5" font-family="Helvetica,sans-Serif" font-size="10.00" fill="#000000">/opt/panosc/openPMD</text>
<text text-anchor="start" x="176" y="-18.5" font-family="Helvetica,sans-Serif" font-size="10.00" fill="#000000">_extension/openPMD_raytrace</text>
<text text-anchor="middle" x="243" y="-7.5" font-family="Helvetica,sans-Serif" font-size="10.00" fill="#000000">_API/cpp/src/rays.cc</text>
</a>
</g>
</g>
<!-- Node2&#45;&gt;Node4 -->
<g id="edge3" class="edge">
<title>Node2&#45;&gt;Node4</title>
<path fill="none" stroke="#191970" d="M243,-68.0789C243,-59.2178 243,-49.7747 243,-41.6898"/>
<polygon fill="#191970" stroke="#191970" points="239.5001,-68.0974 243,-78.0974 246.5001,-68.0975 239.5001,-68.0974"/>
</g>
<!-- Node5 -->
<g id="node5" class="node">
<title>Node5</title>
<g id="a_node5"><a xlink:href="openPMD__io_8cpp_source.html" target="_top" xlink:title="/opt/panosc/openPMD\l_extension/openPMD_raytrace\l_API/python/src/openPMD_io.cpp">
<polygon fill="#ffffff" stroke="#000000" points="336,-.5 336,-41.5 500,-41.5 500,-.5 336,-.5"/>
<text text-anchor="start" x="344" y="-29.5" font-family="Helvetica,sans-Serif" font-size="10.00" fill="#000000">/opt/panosc/openPMD</text>
<text text-anchor="start" x="344" y="-18.5" font-family="Helvetica,sans-Serif" font-size="10.00" fill="#000000">_extension/openPMD_raytrace</text>
<text text-anchor="middle" x="418" y="-7.5" font-family="Helvetica,sans-Serif" font-size="10.00" fill="#000000">_API/python/src/openPMD_io.cpp</text>
</a>
</g>
</g>
<!-- Node2&#45;&gt;Node5 -->
<g id="edge4" class="edge">
<title>Node2&#45;&gt;Node5</title>
<path fill="none" stroke="#191970" d="M298.637,-74.2018C322.2639,-63.671 349.4805,-51.5401 371.9529,-41.5239"/>
<polygon fill="#191970" stroke="#191970" points="297.1463,-71.0343 289.4373,-78.3022 299.996,-77.4279 297.1463,-71.0343"/>
</g>
</g>
</svg>
