<?xml version="1.0" encoding="UTF-8" standalone="no"?>
<!DOCTYPE svg PUBLIC "-//W3C//DTD SVG 1.1//EN"
 "http://www.w3.org/Graphics/SVG/1.1/DTD/svg11.dtd">
<!-- Generated by graphviz version 2.40.1 (0)
 -->
<!-- Title: /opt/panosc/openPMD_extension/openPMD_raytrace_API/cpp/include/openPMD_io.hh Pages: 1 -->
<svg width="407pt" height="162pt"
 viewBox="0.00 0.00 407.00 162.00" xmlns="http://www.w3.org/2000/svg" xmlns:xlink="http://www.w3.org/1999/xlink">
<g id="graph0" class="graph" transform="scale(1 1) rotate(0) translate(4 158)">
<title>/opt/panosc/openPMD_extension/openPMD_raytrace_API/cpp/include/openPMD_io.hh</title>
<polygon fill="#ffffff" stroke="transparent" points="-4,4 -4,-158 403,-158 403,4 -4,4"/>
<!-- Node0 -->
<g id="node1" class="node">
<title>Node0</title>
<polygon fill="#bfbfbf" stroke="#000000" points="145,-112.5 145,-153.5 308,-153.5 308,-112.5 145,-112.5"/>
<text text-anchor="start" x="153" y="-141.5" font-family="Helvetica,sans-Serif" font-size="10.00" fill="#000000">/opt/panosc/openPMD</text>
<text text-anchor="start" x="153" y="-130.5" font-family="Helvetica,sans-Serif" font-size="10.00" fill="#000000">_extension/openPMD_raytrace</text>
<text text-anchor="middle" x="226.5" y="-119.5" font-family="Helvetica,sans-Serif" font-size="10.00" fill="#000000">_API/cpp/include/openPMD_io.hh</text>
</g>
<!-- Node1 -->
<g id="node2" class="node">
<title>Node1</title>
<g id="a_node2"><a xlink:href="openpmd__output__formats_8h.html" target="_top" xlink:title="openpmd_output_formats.h">
<polygon fill="#ffffff" stroke="#000000" points="0,-56.5 0,-75.5 135,-75.5 135,-56.5 0,-56.5"/>
<text text-anchor="middle" x="67.5" y="-63.5" font-family="Helvetica,sans-Serif" font-size="10.00" fill="#000000">openpmd_output_formats.h</text>
</a>
</g>
</g>
<!-- Node0&#45;&gt;Node1 -->
<g id="edge1" class="edge">
<title>Node0&#45;&gt;Node1</title>
<path fill="none" stroke="#191970" d="M177.4974,-112.3511C152.2215,-101.7003 122.0979,-89.0066 99.7707,-79.5983"/>
<polygon fill="#191970" stroke="#191970" points="100.9861,-76.3125 90.4118,-75.6546 98.2679,-82.7632 100.9861,-76.3125"/>
</g>
<!-- Node2 -->
<g id="node3" class="node">
<title>Node2</title>
<g id="a_node3"><a xlink:href="ray_8hh_source.html" target="_top" xlink:title="ray.hh">
<polygon fill="#ffffff" stroke="#000000" points="153.5,-56.5 153.5,-75.5 197.5,-75.5 197.5,-56.5 153.5,-56.5"/>
<text text-anchor="middle" x="175.5" y="-63.5" font-family="Helvetica,sans-Serif" font-size="10.00" fill="#000000">ray.hh</text>
</a>
</g>
</g>
<!-- Node0&#45;&gt;Node2 -->
<g id="edge2" class="edge">
<title>Node0&#45;&gt;Node2</title>
<path fill="none" stroke="#191970" d="M210.6428,-112.168C203.7128,-103.0639 195.6685,-92.4959 189.0264,-83.7699"/>
<polygon fill="#191970" stroke="#191970" points="191.7867,-81.6176 182.9448,-75.7805 186.2168,-85.8574 191.7867,-81.6176"/>
</g>
<!-- Node4 -->
<g id="node5" class="node">
<title>Node4</title>
<polygon fill="#ffffff" stroke="#bfbfbf" points="215.5,-56.5 215.5,-75.5 339.5,-75.5 339.5,-56.5 215.5,-56.5"/>
<text text-anchor="middle" x="277.5" y="-63.5" font-family="Helvetica,sans-Serif" font-size="10.00" fill="#000000">openPMD/openPMD.hpp</text>
</g>
<!-- Node0&#45;&gt;Node4 -->
<g id="edge4" class="edge">
<title>Node0&#45;&gt;Node4</title>
<path fill="none" stroke="#191970" d="M242.3572,-112.168C249.2872,-103.0639 257.3315,-92.4959 263.9736,-83.7699"/>
<polygon fill="#191970" stroke="#191970" points="266.7832,-85.8574 270.0552,-75.7805 261.2133,-81.6176 266.7832,-85.8574"/>
</g>
<!-- Node5 -->
<g id="node6" class="node">
<title>Node5</title>
<polygon fill="#ffffff" stroke="#bfbfbf" points="358,-56.5 358,-75.5 399,-75.5 399,-56.5 358,-56.5"/>
<text text-anchor="middle" x="378.5" y="-63.5" font-family="Helvetica,sans-Serif" font-size="10.00" fill="#000000">string</text>
</g>
<!-- Node0&#45;&gt;Node5 -->
<g id="edge5" class="edge">
<title>Node0&#45;&gt;Node5</title>
<path fill="none" stroke="#191970" d="M273.3453,-112.3511C297.8539,-101.548 327.1303,-88.6432 348.5611,-79.1968"/>
<polygon fill="#191970" stroke="#191970" points="350.0715,-82.356 357.8102,-75.1198 347.248,-75.9507 350.0715,-82.356"/>
</g>
<!-- Node3 -->
<g id="node4" class="node">
<title>Node3</title>
<polygon fill="#ffffff" stroke="#bfbfbf" points="153.5,-.5 153.5,-19.5 197.5,-19.5 197.5,-.5 153.5,-.5"/>
<text text-anchor="middle" x="175.5" y="-7.5" font-family="Helvetica,sans-Serif" font-size="10.00" fill="#000000">cmath</text>
</g>
<!-- Node2&#45;&gt;Node3 -->
<g id="edge3" class="edge">
<title>Node2&#45;&gt;Node3</title>
<path fill="none" stroke="#191970" d="M175.5,-56.2455C175.5,-48.9382 175.5,-38.6944 175.5,-29.7046"/>
<polygon fill="#191970" stroke="#191970" points="179.0001,-29.6426 175.5,-19.6427 172.0001,-29.6427 179.0001,-29.6426"/>
</g>
</g>
</svg>
