<?xml version="1.0" encoding="UTF-8" standalone="no"?>
<!DOCTYPE svg PUBLIC "-//W3C//DTD SVG 1.1//EN"
 "http://www.w3.org/Graphics/SVG/1.1/DTD/svg11.dtd">
<!-- Generated by graphviz version 2.40.1 (0)
 -->
<!-- Title: /opt/panosc/openPMD_extension/openPMD_raytrace_API/cpp/src/openPMD_io.cc Pages: 1 -->
<svg width="490pt" height="218pt"
 viewBox="0.00 0.00 490.00 218.00" xmlns="http://www.w3.org/2000/svg" xmlns:xlink="http://www.w3.org/1999/xlink">
<g id="graph0" class="graph" transform="scale(1 1) rotate(0) translate(4 214)">
<title>/opt/panosc/openPMD_extension/openPMD_raytrace_API/cpp/src/openPMD_io.cc</title>
<polygon fill="#ffffff" stroke="transparent" points="-4,4 -4,-214 486,-214 486,4 -4,4"/>
<!-- Node0 -->
<g id="node1" class="node">
<title>Node0</title>
<polygon fill="#bfbfbf" stroke="#000000" points="274.5,-168.5 274.5,-209.5 424.5,-209.5 424.5,-168.5 274.5,-168.5"/>
<text text-anchor="start" x="282.5" y="-197.5" font-family="Helvetica,sans-Serif" font-size="10.00" fill="#000000">/opt/panosc/openPMD</text>
<text text-anchor="start" x="282.5" y="-186.5" font-family="Helvetica,sans-Serif" font-size="10.00" fill="#000000">_extension/openPMD_raytrace</text>
<text text-anchor="middle" x="349.5" y="-175.5" font-family="Helvetica,sans-Serif" font-size="10.00" fill="#000000">_API/cpp/src/openPMD_io.cc</text>
</g>
<!-- Node1 -->
<g id="node2" class="node">
<title>Node1</title>
<g id="a_node2"><a xlink:href="openPMD__io_8hh.html" target="_top" xlink:title="openPMD_io.hh">
<polygon fill="#ffffff" stroke="#000000" points="193.5,-112.5 193.5,-131.5 279.5,-131.5 279.5,-112.5 193.5,-112.5"/>
<text text-anchor="middle" x="236.5" y="-119.5" font-family="Helvetica,sans-Serif" font-size="10.00" fill="#000000">openPMD_io.hh</text>
</a>
</g>
</g>
<!-- Node0&#45;&gt;Node1 -->
<g id="edge1" class="edge">
<title>Node0&#45;&gt;Node1</title>
<path fill="none" stroke="#191970" d="M314.6742,-168.3511C297.597,-158.2256 277.4059,-146.254 261.822,-137.0139"/>
<polygon fill="#191970" stroke="#191970" points="263.1699,-133.7442 252.7832,-131.6546 259.5998,-139.7654 263.1699,-133.7442"/>
</g>
<!-- Node5 -->
<g id="node6" class="node">
<title>Node5</title>
<polygon fill="#ffffff" stroke="#bfbfbf" points="275.5,-56.5 275.5,-75.5 399.5,-75.5 399.5,-56.5 275.5,-56.5"/>
<text text-anchor="middle" x="337.5" y="-63.5" font-family="Helvetica,sans-Serif" font-size="10.00" fill="#000000">openPMD/openPMD.hpp</text>
</g>
<!-- Node0&#45;&gt;Node5 -->
<g id="edge8" class="edge">
<title>Node0&#45;&gt;Node5</title>
<path fill="none" stroke="#191970" d="M346.2192,-168.4682C344.5909,-157.6443 342.7169,-144.1304 341.5,-132 339.9579,-116.6285 338.9317,-99.1789 338.3052,-86.0842"/>
<polygon fill="#191970" stroke="#191970" points="341.7916,-85.6956 337.8546,-75.8594 334.7984,-86.0039 341.7916,-85.6956"/>
</g>
<!-- Node7 -->
<g id="node8" class="node">
<title>Node7</title>
<polygon fill="#ffffff" stroke="#bfbfbf" points="350.5,-112.5 350.5,-131.5 404.5,-131.5 404.5,-112.5 350.5,-112.5"/>
<text text-anchor="middle" x="377.5" y="-119.5" font-family="Helvetica,sans-Serif" font-size="10.00" fill="#000000">iostream</text>
</g>
<!-- Node0&#45;&gt;Node7 -->
<g id="edge7" class="edge">
<title>Node0&#45;&gt;Node7</title>
<path fill="none" stroke="#191970" d="M358.2059,-168.168C361.8124,-159.5381 365.9687,-149.5928 369.4979,-141.1479"/>
<polygon fill="#191970" stroke="#191970" points="372.786,-142.3568 373.4126,-131.7805 366.3273,-139.6576 372.786,-142.3568"/>
</g>
<!-- Node8 -->
<g id="node9" class="node">
<title>Node8</title>
<polygon fill="#ffffff" stroke="#bfbfbf" points="423,-112.5 423,-131.5 482,-131.5 482,-112.5 423,-112.5"/>
<text text-anchor="middle" x="452.5" y="-119.5" font-family="Helvetica,sans-Serif" font-size="10.00" fill="#000000">exception</text>
</g>
<!-- Node0&#45;&gt;Node8 -->
<g id="edge9" class="edge">
<title>Node0&#45;&gt;Node8</title>
<path fill="none" stroke="#191970" d="M381.2438,-168.3511C396.663,-158.3212 414.8671,-146.4797 429.0157,-137.2762"/>
<polygon fill="#191970" stroke="#191970" points="431.1837,-140.0413 437.6578,-131.6546 427.3667,-134.1735 431.1837,-140.0413"/>
</g>
<!-- Node2 -->
<g id="node3" class="node">
<title>Node2</title>
<g id="a_node3"><a xlink:href="openpmd__output__formats_8h.html" target="_top" xlink:title="openpmd_output_formats.h">
<polygon fill="#ffffff" stroke="#000000" points="0,-56.5 0,-75.5 135,-75.5 135,-56.5 0,-56.5"/>
<text text-anchor="middle" x="67.5" y="-63.5" font-family="Helvetica,sans-Serif" font-size="10.00" fill="#000000">openpmd_output_formats.h</text>
</a>
</g>
</g>
<!-- Node1&#45;&gt;Node2 -->
<g id="edge2" class="edge">
<title>Node1&#45;&gt;Node2</title>
<path fill="none" stroke="#191970" d="M207.4479,-112.3733C179.3457,-103.0613 136.5946,-88.8953 105.7393,-78.671"/>
<polygon fill="#191970" stroke="#191970" points="106.7664,-75.3243 96.173,-75.5011 104.5645,-81.969 106.7664,-75.3243"/>
</g>
<!-- Node3 -->
<g id="node4" class="node">
<title>Node3</title>
<g id="a_node4"><a xlink:href="ray_8hh_source.html" target="_top" xlink:title="ray.hh">
<polygon fill="#ffffff" stroke="#000000" points="153.5,-56.5 153.5,-75.5 197.5,-75.5 197.5,-56.5 153.5,-56.5"/>
<text text-anchor="middle" x="175.5" y="-63.5" font-family="Helvetica,sans-Serif" font-size="10.00" fill="#000000">ray.hh</text>
</a>
</g>
</g>
<!-- Node1&#45;&gt;Node3 -->
<g id="edge3" class="edge">
<title>Node1&#45;&gt;Node3</title>
<path fill="none" stroke="#191970" d="M225.8746,-112.2455C216.9527,-104.0549 204.012,-92.1749 193.4808,-82.5069"/>
<polygon fill="#191970" stroke="#191970" points="195.7371,-79.8271 186.0036,-75.6427 191.0032,-84.9837 195.7371,-79.8271"/>
</g>
<!-- Node1&#45;&gt;Node5 -->
<g id="edge5" class="edge">
<title>Node1&#45;&gt;Node5</title>
<path fill="none" stroke="#191970" d="M254.0929,-112.2455C269.879,-103.4928 293.2639,-90.527 311.2587,-80.5496"/>
<polygon fill="#191970" stroke="#191970" points="313.0603,-83.5528 320.1087,-75.6427 309.6659,-77.4308 313.0603,-83.5528"/>
</g>
<!-- Node6 -->
<g id="node7" class="node">
<title>Node6</title>
<polygon fill="#ffffff" stroke="#bfbfbf" points="216,-56.5 216,-75.5 257,-75.5 257,-56.5 216,-56.5"/>
<text text-anchor="middle" x="236.5" y="-63.5" font-family="Helvetica,sans-Serif" font-size="10.00" fill="#000000">string</text>
</g>
<!-- Node1&#45;&gt;Node6 -->
<g id="edge6" class="edge">
<title>Node1&#45;&gt;Node6</title>
<path fill="none" stroke="#191970" d="M236.5,-112.2455C236.5,-104.9382 236.5,-94.6944 236.5,-85.7046"/>
<polygon fill="#191970" stroke="#191970" points="240.0001,-85.6426 236.5,-75.6427 233.0001,-85.6427 240.0001,-85.6426"/>
</g>
<!-- Node4 -->
<g id="node5" class="node">
<title>Node4</title>
<polygon fill="#ffffff" stroke="#bfbfbf" points="153.5,-.5 153.5,-19.5 197.5,-19.5 197.5,-.5 153.5,-.5"/>
<text text-anchor="middle" x="175.5" y="-7.5" font-family="Helvetica,sans-Serif" font-size="10.00" fill="#000000">cmath</text>
</g>
<!-- Node3&#45;&gt;Node4 -->
<g id="edge4" class="edge">
<title>Node3&#45;&gt;Node4</title>
<path fill="none" stroke="#191970" d="M175.5,-56.2455C175.5,-48.9382 175.5,-38.6944 175.5,-29.7046"/>
<polygon fill="#191970" stroke="#191970" points="179.0001,-29.6426 175.5,-19.6427 172.0001,-29.6427 179.0001,-29.6426"/>
</g>
</g>
</svg>
