<?xml version="1.0" encoding="UTF-8" standalone="no"?>
<!DOCTYPE svg PUBLIC "-//W3C//DTD SVG 1.1//EN"
 "http://www.w3.org/Graphics/SVG/1.1/DTD/svg11.dtd">
<!-- Generated by graphviz version 2.40.1 (0)
 -->
<!-- Title: /opt/panosc/openPMD_extension/openPMD_raytrace_API/cpp/src/rays.cc Pages: 1 -->
<svg width="511pt" height="218pt"
 viewBox="0.00 0.00 510.50 218.00" xmlns="http://www.w3.org/2000/svg" xmlns:xlink="http://www.w3.org/1999/xlink">
<g id="graph0" class="graph" transform="scale(1 1) rotate(0) translate(4 214)">
<title>/opt/panosc/openPMD_extension/openPMD_raytrace_API/cpp/src/rays.cc</title>
<polygon fill="#ffffff" stroke="transparent" points="-4,4 -4,-214 506.5,-214 506.5,4 -4,4"/>
<!-- Node0 -->
<g id="node1" class="node">
<title>Node0</title>
<polygon fill="#bfbfbf" stroke="#000000" points="352.5,-168.5 352.5,-209.5 502.5,-209.5 502.5,-168.5 352.5,-168.5"/>
<text text-anchor="start" x="360.5" y="-197.5" font-family="Helvetica,sans-Serif" font-size="10.00" fill="#000000">/opt/panosc/openPMD</text>
<text text-anchor="start" x="360.5" y="-186.5" font-family="Helvetica,sans-Serif" font-size="10.00" fill="#000000">_extension/openPMD_raytrace</text>
<text text-anchor="middle" x="427.5" y="-175.5" font-family="Helvetica,sans-Serif" font-size="10.00" fill="#000000">_API/cpp/src/rays.cc</text>
</g>
<!-- Node1 -->
<g id="node2" class="node">
<title>Node1</title>
<g id="a_node2"><a xlink:href="openPMD__io_8hh.html" target="_top" xlink:title="openPMD_io.hh">
<polygon fill="#ffffff" stroke="#000000" points="234.5,-112.5 234.5,-131.5 320.5,-131.5 320.5,-112.5 234.5,-112.5"/>
<text text-anchor="middle" x="277.5" y="-119.5" font-family="Helvetica,sans-Serif" font-size="10.00" fill="#000000">openPMD_io.hh</text>
</a>
</g>
</g>
<!-- Node0&#45;&gt;Node1 -->
<g id="edge1" class="edge">
<title>Node0&#45;&gt;Node1</title>
<path fill="none" stroke="#191970" d="M381.2711,-168.3511C357.6398,-157.7958 329.5168,-145.2342 308.5125,-135.8523"/>
<polygon fill="#191970" stroke="#191970" points="309.6729,-132.5373 299.1149,-131.6546 306.818,-138.9287 309.6729,-132.5373"/>
</g>
<!-- Node4 -->
<g id="node5" class="node">
<title>Node4</title>
<polygon fill="#ffffff" stroke="#bfbfbf" points="279.5,-.5 279.5,-19.5 323.5,-19.5 323.5,-.5 279.5,-.5"/>
<text text-anchor="middle" x="301.5" y="-7.5" font-family="Helvetica,sans-Serif" font-size="10.00" fill="#000000">cmath</text>
</g>
<!-- Node0&#45;&gt;Node4 -->
<g id="edge8" class="edge">
<title>Node0&#45;&gt;Node4</title>
<path fill="none" stroke="#191970" d="M430.1572,-168.1818C432.6055,-139.8039 432.6862,-88.7684 407.5,-56 389.6359,-32.7581 357.6293,-21.0618 333.4456,-15.3031"/>
<polygon fill="#191970" stroke="#191970" points="334.1376,-11.8719 323.6242,-13.1823 332.6601,-18.7142 334.1376,-11.8719"/>
</g>
<!-- Node7 -->
<g id="node8" class="node">
<title>Node7</title>
<polygon fill="#ffffff" stroke="#bfbfbf" points="455.5,-112.5 455.5,-131.5 493.5,-131.5 493.5,-112.5 455.5,-112.5"/>
<text text-anchor="middle" x="474.5" y="-119.5" font-family="Helvetica,sans-Serif" font-size="10.00" fill="#000000">array</text>
</g>
<!-- Node0&#45;&gt;Node7 -->
<g id="edge7" class="edge">
<title>Node0&#45;&gt;Node7</title>
<path fill="none" stroke="#191970" d="M442.1135,-168.168C448.4334,-159.1587 455.759,-148.7159 461.8428,-140.0432"/>
<polygon fill="#191970" stroke="#191970" points="464.7615,-141.9771 467.6391,-131.7805 459.0309,-137.9571 464.7615,-141.9771"/>
</g>
<!-- Node2 -->
<g id="node3" class="node">
<title>Node2</title>
<g id="a_node3"><a xlink:href="openpmd__output__formats_8h.html" target="_top" xlink:title="openpmd_output_formats.h">
<polygon fill="#ffffff" stroke="#000000" points="0,-56.5 0,-75.5 135,-75.5 135,-56.5 0,-56.5"/>
<text text-anchor="middle" x="67.5" y="-63.5" font-family="Helvetica,sans-Serif" font-size="10.00" fill="#000000">openpmd_output_formats.h</text>
</a>
</g>
</g>
<!-- Node1&#45;&gt;Node2 -->
<g id="edge2" class="edge">
<title>Node1&#45;&gt;Node2</title>
<path fill="none" stroke="#191970" d="M241.3997,-112.3733C205.8752,-102.9001 151.512,-88.4032 113.0381,-78.1435"/>
<polygon fill="#191970" stroke="#191970" points="113.6934,-74.696 103.1292,-75.5011 111.8897,-81.4596 113.6934,-74.696"/>
</g>
<!-- Node3 -->
<g id="node4" class="node">
<title>Node3</title>
<g id="a_node4"><a xlink:href="ray_8hh_source.html" target="_top" xlink:title="ray.hh">
<polygon fill="#ffffff" stroke="#000000" points="153.5,-56.5 153.5,-75.5 197.5,-75.5 197.5,-56.5 153.5,-56.5"/>
<text text-anchor="middle" x="175.5" y="-63.5" font-family="Helvetica,sans-Serif" font-size="10.00" fill="#000000">ray.hh</text>
</a>
</g>
</g>
<!-- Node1&#45;&gt;Node3 -->
<g id="edge3" class="edge">
<title>Node1&#45;&gt;Node3</title>
<path fill="none" stroke="#191970" d="M259.733,-112.2455C243.7905,-103.4928 220.1741,-90.527 202.0011,-80.5496"/>
<polygon fill="#191970" stroke="#191970" points="203.5137,-77.3873 193.0634,-75.6427 200.1448,-83.5233 203.5137,-77.3873"/>
</g>
<!-- Node5 -->
<g id="node6" class="node">
<title>Node5</title>
<polygon fill="#ffffff" stroke="#bfbfbf" points="215.5,-56.5 215.5,-75.5 339.5,-75.5 339.5,-56.5 215.5,-56.5"/>
<text text-anchor="middle" x="277.5" y="-63.5" font-family="Helvetica,sans-Serif" font-size="10.00" fill="#000000">openPMD/openPMD.hpp</text>
</g>
<!-- Node1&#45;&gt;Node5 -->
<g id="edge5" class="edge">
<title>Node1&#45;&gt;Node5</title>
<path fill="none" stroke="#191970" d="M277.5,-112.2455C277.5,-104.9382 277.5,-94.6944 277.5,-85.7046"/>
<polygon fill="#191970" stroke="#191970" points="281.0001,-85.6426 277.5,-75.6427 274.0001,-85.6427 281.0001,-85.6426"/>
</g>
<!-- Node6 -->
<g id="node7" class="node">
<title>Node6</title>
<polygon fill="#ffffff" stroke="#bfbfbf" points="358,-56.5 358,-75.5 399,-75.5 399,-56.5 358,-56.5"/>
<text text-anchor="middle" x="378.5" y="-63.5" font-family="Helvetica,sans-Serif" font-size="10.00" fill="#000000">string</text>
</g>
<!-- Node1&#45;&gt;Node6 -->
<g id="edge6" class="edge">
<title>Node1&#45;&gt;Node6</title>
<path fill="none" stroke="#191970" d="M295.0929,-112.2455C310.879,-103.4928 334.2639,-90.527 352.2587,-80.5496"/>
<polygon fill="#191970" stroke="#191970" points="354.0603,-83.5528 361.1087,-75.6427 350.6659,-77.4308 354.0603,-83.5528"/>
</g>
<!-- Node3&#45;&gt;Node4 -->
<g id="edge4" class="edge">
<title>Node3&#45;&gt;Node4</title>
<path fill="none" stroke="#191970" d="M197.1602,-56.3733C217.4772,-47.3435 248.064,-33.7494 270.875,-23.6111"/>
<polygon fill="#191970" stroke="#191970" points="272.4059,-26.7609 280.1225,-19.5011 269.5628,-20.3642 272.4059,-26.7609"/>
</g>
</g>
</svg>
